<svg xmlns="http://www.w3.org/2000/svg" width="25" height="17" viewBox="0 0 25 17"><defs><mask id="kkumb" width="2" height="2" x="-1" y="-1"><path fill="#fff" d="M0 1h20v11H0z"/><path d="M.94 2.695L2.65 1l7.82 7.034L18.293 1l1.71 1.695-9.531 8.572z"/></mask><filter id="kkuma" width="50" height="41" x="-14" y="-13" filterUnits="userSpaceOnUse"><feOffset dx="2" dy="2" in="SourceGraphic" result="FeOffset1059Out"/><feGaussianBlur in="FeOffset1059Out" result="FeGaussianBlur1060Out" stdDeviation="1.6 1.6"/></filter></defs><g><g><g filter="url(#kkuma)"><path fill="none" d="M.94 2.695L2.65 1l7.82 7.034L18.293 1l1.71 1.695-9.531 8.572z" mask="url(&quot;#kkumb&quot;)"/><path fill-opacity=".7" d="M.94 2.695L2.65 1l7.82 7.034L18.293 1l1.71 1.695-9.531 8.572z"/></g><path fill="#df631e" d="M.94 2.695L2.65 1l7.82 7.034L18.293 1l1.71 1.695-9.531 8.572z"/></g></g></svg>