<svg xmlns="http://www.w3.org/2000/svg" width="25" height="51" viewBox="0 0 25 51"><defs><mask id="ybr8b" width="2" height="2" x="-1" y="-1"><path fill="#fff" d="M1 1h20v11H1z"/><path d="M1 2.695L2.71 1l7.82 7.034L18.353 1l1.71 1.695-9.531 8.572z"/></mask><filter id="ybr8a" width="50" height="41" x="-13" y="-13" filterUnits="userSpaceOnUse"><feOffset dx="2" dy="2" in="SourceGraphic" result="FeOffset1023Out"/><feGaussianBlur in="FeOffset1023Out" result="FeGaussianBlur1024Out" stdDeviation="1.6 1.6"/></filter><mask id="ybr8d" width="2" height="2" x="-1" y="-1"><path fill="#fff" d="M1 18h20v11H1z"/><path d="M1 19.695L2.71 18l7.82 7.034L18.353 18l1.71 1.695-9.531 8.572z"/></mask><filter id="ybr8c" width="50" height="41" x="-13" y="4" filterUnits="userSpaceOnUse"><feOffset dx="2" dy="2" in="SourceGraphic" result="FeOffset1039Out"/><feGaussianBlur in="FeOffset1039Out" result="FeGaussianBlur1040Out" stdDeviation="1.6 1.6"/></filter><mask id="ybr8f" width="2" height="2" x="-1" y="-1"><path fill="#fff" d="M1 35h20v11H1z"/><path d="M1 36.695L2.71 35l7.82 7.034L18.353 35l1.71 1.695-9.531 8.572z"/></mask><filter id="ybr8e" width="50" height="41" x="-13" y="21" filterUnits="userSpaceOnUse"><feOffset dx="2" dy="2" in="SourceGraphic" result="FeOffset1055Out"/><feGaussianBlur in="FeOffset1055Out" result="FeGaussianBlur1056Out" stdDeviation="1.6 1.6"/></filter></defs><g><g><g filter="url(#ybr8a)"><path fill="none" d="M1 2.695L2.71 1l7.82 7.034L18.353 1l1.71 1.695-9.531 8.572z" mask="url(&quot;#ybr8b&quot;)"/><path fill-opacity=".7" d="M1 2.695L2.71 1l7.82 7.034L18.353 1l1.71 1.695-9.531 8.572z"/></g><path fill="#fff" d="M1 2.695L2.71 1l7.82 7.034L18.353 1l1.71 1.695-9.531 8.572z"/></g><g><g filter="url(#ybr8c)"><path fill="none" d="M1 19.695L2.71 18l7.82 7.034L18.353 18l1.71 1.695-9.531 8.572z" mask="url(&quot;#ybr8d&quot;)"/><path fill-opacity=".7" d="M1 19.695L2.71 18l7.82 7.034L18.353 18l1.71 1.695-9.531 8.572z"/></g><path fill="#fff" d="M1 19.695L2.71 18l7.82 7.034L18.353 18l1.71 1.695-9.531 8.572z"/></g><g><g filter="url(#ybr8e)"><path fill="none" d="M1 36.695L2.71 35l7.82 7.034L18.353 35l1.71 1.695-9.531 8.572z" mask="url(&quot;#ybr8f&quot;)"/><path fill-opacity=".7" d="M1 36.695L2.71 35l7.82 7.034L18.353 35l1.71 1.695-9.531 8.572z"/></g><path fill="#df631e" d="M1 36.695L2.71 35l7.82 7.034L18.353 35l1.71 1.695-9.531 8.572z"/></g></g></svg>