<svg xmlns="http://www.w3.org/2000/svg" width="757" height="93" viewBox="0 0 757 93"><defs><mask id="k8ycb" width="2" height="2" x="-1" y="-1"><path fill="#fff" d="M0 0h750v86H0z"/><path d="M50.456 75.25H35.567V39.692L15.717 75.25H0V17.365h14.889v35.558L34.74 17.365h15.716zm72.828 0h-14.888V51.683h-20.68V75.25H72.829V17.365h14.889v22.74h20.679v-22.74h14.888zm22.372-57.885h33.086c5.404 0 9.375 1.24 11.911 3.722 2.537 2.425 3.805 6.146 3.805 11.163 0 3.308-.717 6.009-2.151 8.104-1.433 2.04-3.198 3.473-5.293 4.3 4.466 1.213 7.499 4.19 9.098 8.93.552 1.71.828 3.694.828 5.954 0 5.403-1.269 9.372-3.805 11.908-2.537 2.536-6.507 3.804-11.911 3.804h-35.568zm36.395 39.693c0-3.308-1.655-4.962-4.963-4.962h-16.543v11.577h16.543c3.308 0 4.963-1.654 4.963-4.962zm-2.482-23.154c0-3.308-1.654-4.962-4.963-4.962h-14.061V40.52h14.061c3.309 0 4.963-1.654 4.963-4.961zm47.558 41.346h-16.129l21.919-57.885h16.543l21.92 57.885h-16.13l-3.722-10.336h-20.679zm7.445-21.087h13.234l-6.617-19.432zm88.915 21.087V39.692L303.636 75.25H287.92V17.365h14.888v35.558l19.852-35.558h15.716V75.25zm-14.889-62.02c-7.168 0-10.752-3.583-10.752-10.75V0h10.752v2.067c0 .827.276 1.516.828 2.068.551.55 1.24.827 2.067.827h2.482c.827 0 1.516-.276 2.068-.827.551-.552.827-1.24.827-2.068V0h10.753v2.48c0 7.167-3.584 10.75-10.753 10.75zm80.273 62.02h-14.889V28.942h-17.37V17.365h49.629v11.577h-17.37zm114.967-58.712c1.379 0 3.861.276 7.445.827V28.53h-3.309c-.827 0-1.571.275-2.233.827-.662.496-1.158 1.047-1.489 1.654l-7.858 14.884 16.13 29.356h-15.716l-12.821-23.567h-7.445V75.25h-14.888V17.365h14.888v22.74h7.445l8.271-15.71c1.213-2.316 2.702-4.19 4.467-5.624 1.82-1.488 4.191-2.233 7.113-2.233zm63.261 16.539c0-3.308-1.654-4.962-4.963-4.962h-14.061c-3.309 0-4.963 1.654-4.963 4.962v26.462c0 3.307 1.654 4.961 4.963 4.961h14.061c3.309 0 4.963-1.654 4.963-4.962zm14.889 26.462c0 5.788-1.323 10.005-3.97 12.651-2.592 2.591-6.783 3.887-12.573 3.887h-20.679c-5.79 0-10.008-1.296-12.655-3.887-2.592-2.646-3.888-6.863-3.888-12.652V33.078c0-5.789 1.296-9.978 3.888-12.57 2.647-2.646 6.865-3.969 12.655-3.969h20.679c5.79 0 9.981 1.323 12.573 3.97 2.647 2.59 3.97 6.78 3.97 12.569zm27.374-42.174h43.425v46.308h6.204V86h-14.062l-.827-10.75h-32.259L611.016 86h-14.062V63.673h5.377a18.005 18.005 0 0 0 3.557-6.12c.827-2.314 1.295-4.41 1.406-6.284zm28.536 46.308v-34.73h-15.302l-1.241 20.672c-.165 3.363-.992 6.754-2.481 10.171a23.512 23.512 0 0 1-2.068 3.887zm55.029-26.462h19.024c5.79 0 9.981 1.324 12.573 3.97 2.647 2.59 3.97 6.78 3.97 12.569v4.962c0 5.788-1.323 10.005-3.97 12.651-2.592 2.592-6.783 3.887-12.573 3.887h-33.913V17.365h14.889zM750 75.25h-14.889V17.365H750zm-36.395-21.5c0-3.308-1.654-4.962-4.963-4.962h-15.715v14.885h15.715c3.309 0 4.963-1.654 4.963-4.962z"/></mask><filter id="k8yca" width="782" height="118" x="-14" y="-14" filterUnits="userSpaceOnUse"><feOffset dx="4" dy="4" in="SourceGraphic" result="FeOffset1075Out"/><feGaussianBlur in="FeOffset1075Out" result="FeGaussianBlur1076Out" stdDeviation="1.6 1.6"/></filter></defs><g><g><g filter="url(#k8yca)"><path fill="none" d="M50.456 75.25H35.567V39.692L15.717 75.25H0V17.365h14.889v35.558L34.74 17.365h15.716zm72.828 0h-14.888V51.683h-20.68V75.25H72.829V17.365h14.889v22.74h20.679v-22.74h14.888zm22.372-57.885h33.086c5.404 0 9.375 1.24 11.911 3.722 2.537 2.425 3.805 6.146 3.805 11.163 0 3.308-.717 6.009-2.151 8.104-1.433 2.04-3.198 3.473-5.293 4.3 4.466 1.213 7.499 4.19 9.098 8.93.552 1.71.828 3.694.828 5.954 0 5.403-1.269 9.372-3.805 11.908-2.537 2.536-6.507 3.804-11.911 3.804h-35.568zm36.395 39.693c0-3.308-1.655-4.962-4.963-4.962h-16.543v11.577h16.543c3.308 0 4.963-1.654 4.963-4.962zm-2.482-23.154c0-3.308-1.654-4.962-4.963-4.962h-14.061V40.52h14.061c3.309 0 4.963-1.654 4.963-4.961zm47.558 41.346h-16.129l21.919-57.885h16.543l21.92 57.885h-16.13l-3.722-10.336h-20.679zm7.445-21.087h13.234l-6.617-19.432zm88.915 21.087V39.692L303.636 75.25H287.92V17.365h14.888v35.558l19.852-35.558h15.716V75.25zm-14.889-62.02c-7.168 0-10.752-3.583-10.752-10.75V0h10.752v2.067c0 .827.276 1.516.828 2.068.551.55 1.24.827 2.067.827h2.482c.827 0 1.516-.276 2.068-.827.551-.552.827-1.24.827-2.068V0h10.753v2.48c0 7.167-3.584 10.75-10.753 10.75zm80.273 62.02h-14.889V28.942h-17.37V17.365h49.629v11.577h-17.37zm114.967-58.712c1.379 0 3.861.276 7.445.827V28.53h-3.309c-.827 0-1.571.275-2.233.827-.662.496-1.158 1.047-1.489 1.654l-7.858 14.884 16.13 29.356h-15.716l-12.821-23.567h-7.445V75.25h-14.888V17.365h14.888v22.74h7.445l8.271-15.71c1.213-2.316 2.702-4.19 4.467-5.624 1.82-1.488 4.191-2.233 7.113-2.233zm63.261 16.539c0-3.308-1.654-4.962-4.963-4.962h-14.061c-3.309 0-4.963 1.654-4.963 4.962v26.462c0 3.307 1.654 4.961 4.963 4.961h14.061c3.309 0 4.963-1.654 4.963-4.962zm14.889 26.462c0 5.788-1.323 10.005-3.97 12.651-2.592 2.591-6.783 3.887-12.573 3.887h-20.679c-5.79 0-10.008-1.296-12.655-3.887-2.592-2.646-3.888-6.863-3.888-12.652V33.078c0-5.789 1.296-9.978 3.888-12.57 2.647-2.646 6.865-3.969 12.655-3.969h20.679c5.79 0 9.981 1.323 12.573 3.97 2.647 2.59 3.97 6.78 3.97 12.569zm27.374-42.174h43.425v46.308h6.204V86h-14.062l-.827-10.75h-32.259L611.016 86h-14.062V63.673h5.377a18.005 18.005 0 0 0 3.557-6.12c.827-2.314 1.295-4.41 1.406-6.284zm28.536 46.308v-34.73h-15.302l-1.241 20.672c-.165 3.363-.992 6.754-2.481 10.171a23.512 23.512 0 0 1-2.068 3.887zm55.029-26.462h19.024c5.79 0 9.981 1.324 12.573 3.97 2.647 2.59 3.97 6.78 3.97 12.569v4.962c0 5.788-1.323 10.005-3.97 12.651-2.592 2.592-6.783 3.887-12.573 3.887h-33.913V17.365h14.889zM750 75.25h-14.889V17.365H750zm-36.395-21.5c0-3.308-1.654-4.962-4.963-4.962h-15.715v14.885h15.715c3.309 0 4.963-1.654 4.963-4.962z" mask="url(&quot;#k8ycb&quot;)"/><path fill-opacity=".25" d="M50.456 75.25H35.567V39.692L15.717 75.25H0V17.365h14.889v35.558L34.74 17.365h15.716zm72.828 0h-14.888V51.683h-20.68V75.25H72.829V17.365h14.889v22.74h20.679v-22.74h14.888zm22.372-57.885h33.086c5.404 0 9.375 1.24 11.911 3.722 2.537 2.425 3.805 6.146 3.805 11.163 0 3.308-.717 6.009-2.151 8.104-1.433 2.04-3.198 3.473-5.293 4.3 4.466 1.213 7.499 4.19 9.098 8.93.552 1.71.828 3.694.828 5.954 0 5.403-1.269 9.372-3.805 11.908-2.537 2.536-6.507 3.804-11.911 3.804h-35.568zm36.395 39.693c0-3.308-1.655-4.962-4.963-4.962h-16.543v11.577h16.543c3.308 0 4.963-1.654 4.963-4.962zm-2.482-23.154c0-3.308-1.654-4.962-4.963-4.962h-14.061V40.52h14.061c3.309 0 4.963-1.654 4.963-4.961zm47.558 41.346h-16.129l21.919-57.885h16.543l21.92 57.885h-16.13l-3.722-10.336h-20.679zm7.445-21.087h13.234l-6.617-19.432zm88.915 21.087V39.692L303.636 75.25H287.92V17.365h14.888v35.558l19.852-35.558h15.716V75.25zm-14.889-62.02c-7.168 0-10.752-3.583-10.752-10.75V0h10.752v2.067c0 .827.276 1.516.828 2.068.551.55 1.24.827 2.067.827h2.482c.827 0 1.516-.276 2.068-.827.551-.552.827-1.24.827-2.068V0h10.753v2.48c0 7.167-3.584 10.75-10.753 10.75zm80.273 62.02h-14.889V28.942h-17.37V17.365h49.629v11.577h-17.37zm114.967-58.712c1.379 0 3.861.276 7.445.827V28.53h-3.309c-.827 0-1.571.275-2.233.827-.662.496-1.158 1.047-1.489 1.654l-7.858 14.884 16.13 29.356h-15.716l-12.821-23.567h-7.445V75.25h-14.888V17.365h14.888v22.74h7.445l8.271-15.71c1.213-2.316 2.702-4.19 4.467-5.624 1.82-1.488 4.191-2.233 7.113-2.233zm63.261 16.539c0-3.308-1.654-4.962-4.963-4.962h-14.061c-3.309 0-4.963 1.654-4.963 4.962v26.462c0 3.307 1.654 4.961 4.963 4.961h14.061c3.309 0 4.963-1.654 4.963-4.962zm14.889 26.462c0 5.788-1.323 10.005-3.97 12.651-2.592 2.591-6.783 3.887-12.573 3.887h-20.679c-5.79 0-10.008-1.296-12.655-3.887-2.592-2.646-3.888-6.863-3.888-12.652V33.078c0-5.789 1.296-9.978 3.888-12.57 2.647-2.646 6.865-3.969 12.655-3.969h20.679c5.79 0 9.981 1.323 12.573 3.97 2.647 2.59 3.97 6.78 3.97 12.569zm27.374-42.174h43.425v46.308h6.204V86h-14.062l-.827-10.75h-32.259L611.016 86h-14.062V63.673h5.377a18.005 18.005 0 0 0 3.557-6.12c.827-2.314 1.295-4.41 1.406-6.284zm28.536 46.308v-34.73h-15.302l-1.241 20.672c-.165 3.363-.992 6.754-2.481 10.171a23.512 23.512 0 0 1-2.068 3.887zm55.029-26.462h19.024c5.79 0 9.981 1.324 12.573 3.97 2.647 2.59 3.97 6.78 3.97 12.569v4.962c0 5.788-1.323 10.005-3.97 12.651-2.592 2.592-6.783 3.887-12.573 3.887h-33.913V17.365h14.889zM750 75.25h-14.889V17.365H750zm-36.395-21.5c0-3.308-1.654-4.962-4.963-4.962h-15.715v14.885h15.715c3.309 0 4.963-1.654 4.963-4.962z"/></g><path fill="#fff" d="M50.456 75.25H35.567V39.692L15.717 75.25H0V17.365h14.889v35.558L34.74 17.365h15.716zm72.828 0h-14.888V51.683h-20.68V75.25H72.829V17.365h14.889v22.74h20.679v-22.74h14.888zm22.372-57.885h33.086c5.404 0 9.375 1.24 11.911 3.722 2.537 2.425 3.805 6.146 3.805 11.163 0 3.308-.717 6.009-2.151 8.104-1.433 2.04-3.198 3.473-5.293 4.3 4.466 1.213 7.499 4.19 9.098 8.93.552 1.71.828 3.694.828 5.954 0 5.403-1.269 9.372-3.805 11.908-2.537 2.536-6.507 3.804-11.911 3.804h-35.568zm36.395 39.693c0-3.308-1.655-4.962-4.963-4.962h-16.543v11.577h16.543c3.308 0 4.963-1.654 4.963-4.962zm-2.482-23.154c0-3.308-1.654-4.962-4.963-4.962h-14.061V40.52h14.061c3.309 0 4.963-1.654 4.963-4.961zm47.558 41.346h-16.129l21.919-57.885h16.543l21.92 57.885h-16.13l-3.722-10.336h-20.679zm7.445-21.087h13.234l-6.617-19.432zm88.915 21.087V39.692L303.636 75.25H287.92V17.365h14.888v35.558l19.852-35.558h15.716V75.25zm-14.889-62.02c-7.168 0-10.752-3.583-10.752-10.75V0h10.752v2.067c0 .827.276 1.516.828 2.068.551.55 1.24.827 2.067.827h2.482c.827 0 1.516-.276 2.068-.827.551-.552.827-1.24.827-2.068V0h10.753v2.48c0 7.167-3.584 10.75-10.753 10.75zm80.273 62.02h-14.889V28.942h-17.37V17.365h49.629v11.577h-17.37zm114.967-58.712c1.379 0 3.861.276 7.445.827V28.53h-3.309c-.827 0-1.571.275-2.233.827-.662.496-1.158 1.047-1.489 1.654l-7.858 14.884 16.13 29.356h-15.716l-12.821-23.567h-7.445V75.25h-14.888V17.365h14.888v22.74h7.445l8.271-15.71c1.213-2.316 2.702-4.19 4.467-5.624 1.82-1.488 4.191-2.233 7.113-2.233zm63.261 16.539c0-3.308-1.654-4.962-4.963-4.962h-14.061c-3.309 0-4.963 1.654-4.963 4.962v26.462c0 3.307 1.654 4.961 4.963 4.961h14.061c3.309 0 4.963-1.654 4.963-4.962zm14.889 26.462c0 5.788-1.323 10.005-3.97 12.651-2.592 2.591-6.783 3.887-12.573 3.887h-20.679c-5.79 0-10.008-1.296-12.655-3.887-2.592-2.646-3.888-6.863-3.888-12.652V33.078c0-5.789 1.296-9.978 3.888-12.57 2.647-2.646 6.865-3.969 12.655-3.969h20.679c5.79 0 9.981 1.323 12.573 3.97 2.647 2.59 3.97 6.78 3.97 12.569zm27.374-42.174h43.425v46.308h6.204V86h-14.062l-.827-10.75h-32.259L611.016 86h-14.062V63.673h5.377a18.005 18.005 0 0 0 3.557-6.12c.827-2.314 1.295-4.41 1.406-6.284zm28.536 46.308v-34.73h-15.302l-1.241 20.672c-.165 3.363-.992 6.754-2.481 10.171a23.512 23.512 0 0 1-2.068 3.887zm55.029-26.462h19.024c5.79 0 9.981 1.324 12.573 3.97 2.647 2.59 3.97 6.78 3.97 12.569v4.962c0 5.788-1.323 10.005-3.97 12.651-2.592 2.592-6.783 3.887-12.573 3.887h-33.913V17.365h14.889zM750 75.25h-14.889V17.365H750zm-36.395-21.5c0-3.308-1.654-4.962-4.963-4.962h-15.715v14.885h15.715c3.309 0 4.963-1.654 4.963-4.962z"/></g></g></svg>