<svg xmlns="http://www.w3.org/2000/svg" width="1140" height="92" viewBox="0 0 1140 92"><g><g><path fill="#fff" d="M1140 0L741 29l-.001-.005L631.541 92H508.393L398.936 28.995 0 0zM510.112 31.907l-4.503-13.734-4.503 13.734h-14.573l11.79 8.489-4.504 13.734 11.79-8.489 11.79 8.489-4.503-13.735 11.79-8.488zm120.861-13.734l-4.503 13.734h-14.573l11.79 8.489-4.504 13.734 11.79-8.489 11.79 8.489-4.503-13.735 11.79-8.488h-14.573zm-174.442.724l-3.216-9.81-3.217 9.81h-10.409l8.421 6.063-3.217 9.81 8.422-6.063 8.421 6.063-3.217-9.81 8.422-6.063zm226.737-9.81l-3.217 9.81h-10.409l8.421 6.063-3.217 9.81 8.422-6.063 8.421 6.063-3.217-9.81 8.422-6.063h-10.41zM575.726 43.162l-7.077-21.583-7.076 21.583h-22.901l18.527 13.339-7.077 21.582 18.527-13.339 18.527 13.34-7.076-21.583 18.527-13.34z"/></g></g></svg>